<?xml version="1.0" encoding="UTF-8"?>
<svg width="129px" height="72px" viewBox="0 0 129 72" version="1.1" xmlns="http://www.w3.org/2000/svg" xmlns:xlink="http://www.w3.org/1999/xlink">
    <!-- Generator: Sketch 43.2 (39069) - http://www.bohemiancoding.com/sketch -->
    <title>Page 1</title>
    <desc>Created with Sketch.</desc>
    <defs></defs>
    <g id="Page-1" stroke="none" stroke-width="1" fill="none" fill-rule="evenodd">
        <g transform="translate(3.000000, 3.000000)" stroke="#FE3D3D" stroke-width="5">
            <path d="M0.35425,32.7772 C11.01325,52.1242 34.38925,65.5547 61.51675,65.5547 L61.51725,65.5547 C88.64475,65.5547 112.02075,52.1242 122.67975,32.7772 C112.02075,13.4302 88.64475,0.0002 61.51725,0.0002 L61.51675,0.0002 C34.38925,0.0002 11.01325,13.4302 0.35425,32.7772 Z" id="Stroke-1"></path>
            <path d="M94.2944,32.7772 C94.2944,50.8797 79.6189,65.5547 61.5169,65.5547 C43.4144,65.5547 28.7399,50.8797 28.7399,32.7772 C28.7399,14.6752 43.4144,0.0002 61.5169,0.0002 C79.6189,0.0002 94.2944,14.6752 94.2944,32.7772 Z" id="Stroke-3"></path>
            <path d="M79.78415,32.7772 C79.78415,42.8662 71.60565,51.0447 61.51715,51.0447 C51.42815,51.0447 43.24965,42.8662 43.24965,32.7772 C43.24965,22.6882 51.42815,14.5102 61.51715,14.5102 C71.60565,14.5102 79.78415,22.6882 79.78415,32.7772 Z" id="Stroke-5"></path>
        </g>
    </g>
</svg>