<?xml version="1.0" encoding="UTF-8"?>
<svg width="119px" height="520px" viewBox="0 0 119 520" version="1.1" xmlns="http://www.w3.org/2000/svg" xmlns:xlink="http://www.w3.org/1999/xlink">
    <!-- Generator: Sketch 43.2 (39069) - http://www.bohemiancoding.com/sketch -->
    <title>Group 19</title>
    <desc>Created with Sketch.</desc>
    <defs>
        <polygon id="path-1" points="44.9979719 54.4781777 44.9979719 0.210708885 0.0799750756 0.210708885 0.0799750756 54.4781777 44.9979719 54.4781777"></polygon>
    </defs>
    <g id="Desktop" stroke="none" stroke-width="1" fill="none" fill-rule="evenodd">
        <g id="Desktop_Landing_Page_1280" transform="translate(-114.000000, -77.000000)">
            <g id="Page-1" transform="translate(114.000000, 77.000000)">
                <g id="Group-19" transform="translate(0.699721, 0.000000)">
                    <path d="M76.07858,105.304852 L76.07858,105.149886 C76.07858,95.8467421 69.2636919,88.0941218 59.6605779,88.0941218 C50.0574638,88.0941218 43.3969442,95.691777 43.3969442,104.994921 L43.3969442,105.149886 C43.3969442,114.453031 50.2122684,122.205215 59.8153824,122.205215 C69.4184964,122.205215 76.07858,114.607996 76.07858,105.304852 M30.92842,105.304852 L30.92842,105.149886 C30.92842,89.7223467 43.0873351,77.0854883 59.8153824,77.0854883 C76.5429936,77.0854883 88.5471042,89.5673816 88.5471042,104.994921 L88.5471042,105.149886 C88.5471042,120.57699 76.3881891,133.213848 59.6605779,133.213848 C42.9320945,133.213848 30.92842,120.732391 30.92842,105.304852" id="Fill-2" fill="#FFFFFF"></path>
                    <path d="M28.7321143,182.908668 C34.6953594,182.908668 38.1804238,179.342724 38.1804238,174.690716 L38.1804238,174.535751 C38.1804238,169.186617 34.4629346,166.318235 28.4996894,166.318235 L19.2838048,166.318235 L19.2838048,182.908668 L28.7321143,182.908668 Z M7.35731449,155.542267 L29.506573,155.542267 C42.4399469,155.542267 50.2617186,163.217187 50.2617186,174.303521 L50.2617186,174.458486 C50.2617186,187.017644 40.5038,193.52967 28.3448849,193.52967 L19.2838048,193.52967 L19.2838048,209.809736 L7.35731449,209.809736 L7.35731449,155.542267 Z" id="Fill-4" fill="#FFFFFF"></path>
                    <path d="M73.9106188,201.902238 L80.9579318,193.452057 C85.8371091,197.483332 90.9482752,200.041347 97.1439452,200.041347 C102.023122,200.041347 104.965717,198.103192 104.965717,194.92488 L104.965717,194.769915 C104.965717,191.746568 103.10719,190.196044 94.0461102,187.870257 C83.1265035,185.07914 76.0791905,182.055792 76.0791905,171.279825 L76.0791905,171.12486 C76.0791905,161.279119 83.9781465,154.767093 95.0525577,154.767093 C102.952386,154.767093 109.69009,157.247844 115.188485,161.66675 L108.992815,170.659528 C104.191258,167.32625 99.4668853,165.310394 94.8981892,165.310394 C90.328621,165.310394 87.9280605,167.403515 87.9280605,170.039231 L87.9280605,170.194632 C87.9280605,173.760576 90.2514367,174.923469 99.622126,177.326956 C110.619353,180.194901 116.815023,184.148912 116.815023,193.607022 L116.815023,193.761987 C116.815023,204.537954 108.605586,210.585086 96.9115203,210.585086 C88.7025193,210.585086 80.4158979,207.716703 73.9106188,201.902238" id="Fill-6" fill="#FFFFFF"></path>
                    <path d="M35.2654762,260.357344 L35.2654762,260.202379 C35.2654762,244.774839 46.8823574,232.137981 63.5327844,232.137981 C73.7555526,232.137981 79.8736023,235.549396 84.9075842,240.510898 L77.3178012,249.271447 C73.1358984,245.472401 68.8763753,243.146615 63.4551641,243.146615 C54.3168997,243.146615 47.7340004,250.74427 47.7340004,260.047414 L47.7340004,260.202379 C47.7340004,269.505524 54.1616591,277.257707 63.4551641,277.257707 C69.6508341,277.257707 73.4455075,274.776956 77.7050306,270.900646 L85.2948136,278.575565 C79.7187978,284.544996 73.5231278,288.266341 63.0679347,288.266341 C47.1143462,288.266341 35.2654762,275.939849 35.2654762,260.357344" id="Fill-8" fill="#FFFFFF"></path>
                    <path d="M45.1502909,337.883591 L45.1502909,337.728626 C45.1502909,328.425481 38.3354027,320.672861 28.7322887,320.672861 C19.1291747,320.672861 12.468655,328.270516 12.468655,337.57366 L12.468655,337.728626 C12.468655,347.03177 19.2839792,354.783954 28.8870932,354.783954 C38.4902073,354.783954 45.1502909,347.186735 45.1502909,337.883591 M0.000130820734,337.883591 L0.000130820734,337.728626 C0.000130820734,322.301086 12.1590459,309.664227 28.8870932,309.664227 C45.6147045,309.664227 57.6188151,322.146121 57.6188151,337.57366 L57.6188151,337.728626 C57.6188151,353.155729 45.4598999,365.792587 28.7322887,365.792587 C12.0038053,365.792587 0.000130820734,353.31113 0.000130820734,337.883591" id="Fill-10" fill="#FFFFFF"></path>
                    <g id="Group-14" transform="translate(72.823542, 310.384008)">
                        <mask id="mask-2" fill="white">
                            <use xlink:href="#path-1"></use>
                        </mask>
                        <g id="Clip-13"></g>
                        <polygon id="Fill-12" fill="#FFFFFF" mask="url(#mask-2)" points="16.5760336 11.2193424 0.0799750756 11.2193424 0.0799750756 0.210708885 44.9981464 0.210708885 44.9981464 11.2193424 28.5025239 11.2193424 28.5025239 54.4781777 16.5760336 54.4781777"></polygon>
                    </g>
                    <path d="M35.2654762,415.409619 L35.2654762,415.254654 C35.2654762,399.827114 46.8823574,387.190692 63.5327844,387.190692 C73.7555526,387.190692 79.8736023,390.60167 84.9075842,395.563173 L77.3178012,404.323721 C73.1358984,400.524675 68.8763753,398.198889 63.4551641,398.198889 C54.3168997,398.198889 47.7340004,405.796544 47.7340004,415.099252 L47.7340004,415.254654 C47.7340004,424.557361 54.1616591,432.309982 63.4551641,432.309982 C69.6508341,432.309982 73.4455075,429.829231 77.7050306,425.95292 L85.2948136,433.62784 C79.7187978,439.59727 73.5231278,443.318615 63.0679347,443.318615 C47.1143462,443.318615 35.2654762,430.992124 35.2654762,415.409619" id="Fill-15" fill="#FFFFFF"></path>
                    <polygon id="Fill-17" fill="#FFFFFF" points="36.8140884 465.646642 48.7405787 465.646642 48.7405787 487.120876 70.7350327 487.120876 70.7350327 465.646642 82.661523 465.646642 82.661523 519.914111 70.7350327 519.914111 70.7350327 498.129946 48.7405787 498.129946 48.7405787 519.914111 36.8140884 519.914111"></polygon>
                    <polygon id="Fill-1" fill="#FFFFFF" points="70.7346402 0.490036577 70.7346402 21.9642709 48.7406223 21.9642709 48.7406223 0.490036577 36.814132 0.490036577 36.814132 54.7575054 48.7406223 54.7575054 48.7406223 32.9729044 70.7346402 32.9729044 70.7346402 54.7575054 82.6611305 54.7575054 82.6611305 0.490036577"></polygon>
                </g>
            </g>
        </g>
    </g>
</svg>