<?xml version="1.0" encoding="UTF-8"?>
<svg width="23px" height="23px" viewBox="0 0 23 23" version="1.1" xmlns="http://www.w3.org/2000/svg" xmlns:xlink="http://www.w3.org/1999/xlink">
    <!-- Generator: Sketch 43.2 (39069) - http://www.bohemiancoding.com/sketch -->
    <title>Fill 1</title>
    <desc>Created with Sketch.</desc>
    <defs></defs>
    <g id="Desktop" stroke="none" stroke-width="1" fill="none" fill-rule="evenodd">
        <g id="Desktop_Landing_Page_1280" transform="translate(-667.000000, -5586.000000)" fill="#FE3D3D">
            <g id="Page-1" transform="translate(590.000000, 5584.000000)">
                <path d="M88.4109634,9.40513889 C85.9235846,9.40513889 83.9059822,11.3544444 83.9059822,13.7613889 C83.9059822,16.16625 85.9235846,18.1169444 88.4109634,18.1169444 C90.8990382,18.1169444 92.9173366,16.16625 92.9173366,13.7613889 C92.9173366,11.3544444 90.8990382,9.40513889 88.4109634,9.40513889 L88.4109634,9.40513889 Z M97.0701595,12.0829167 L95.0964029,12.0829167 C95.2836175,12.6926389 95.3852283,13.3363889 95.3852283,14.0051389 C95.3852283,17.7266667 92.2617376,20.7454167 88.4109634,20.7454167 C84.5608852,20.7454167 81.4373944,17.7266667 81.4373944,14.0051389 C81.4373944,13.3363889 81.5403972,12.6926389 81.7269159,12.0829167 L79.6675555,12.0829167 L79.6675555,21.5391667 C79.6675555,22.02875 80.0684313,22.4266667 80.5583907,22.4266667 L96.1793244,22.4266667 C96.6699797,22.4266667 97.0701595,22.02875 97.0701595,21.5391667 L97.0701595,12.0829167 Z M93.5158664,5.10375 C92.9590945,5.10375 92.5053253,5.55791667 92.5053253,6.11277778 L92.5053253,8.52388889 C92.5053253,9.07875 92.9590945,9.53222222 93.5158664,9.53222222 L96.0512668,9.53222222 C96.6059509,9.53222222 97.061112,9.07875 97.061112,8.52388889 L97.061112,6.11277778 C97.061112,5.55791667 96.6059509,5.10375 96.0512668,5.10375 L93.5158664,5.10375 Z M80.0538161,2.61833333 L96.7270488,2.61833333 C98.3110651,2.61833333 99.6062559,3.91069444 99.6062559,5.49125 L99.6062559,22.1280556 C99.6062559,23.7086111 98.3110651,25.0002778 96.7270488,25.0002778 L80.0538161,25.0002778 C78.4697998,25.0002778 77.173913,23.7086111 77.173913,22.1280556 L77.173913,5.49125 C77.173913,3.91069444 78.4697998,2.61833333 80.0538161,2.61833333 L80.0538161,2.61833333 Z" id="Fill-1"></path>
            </g>
        </g>
    </g>
</svg>