<?xml version="1.0" encoding="UTF-8"?>
<svg width="29px" height="23px" viewBox="0 0 29 23" version="1.1" xmlns="http://www.w3.org/2000/svg" xmlns:xlink="http://www.w3.org/1999/xlink">
    <!-- Generator: Sketch 43.2 (39069) - http://www.bohemiancoding.com/sketch -->
    <title>Fill 7</title>
    <desc>Created with Sketch.</desc>
    <defs></defs>
    <g id="Desktop" stroke="none" stroke-width="1" fill="none" fill-rule="evenodd">
        <g id="Desktop_Landing_Page_1280" transform="translate(-621.000000, -5586.000000)" fill="#FE3D3D">
            <g id="Page-1" transform="translate(590.000000, 5584.000000)">
                <path d="M59.1237097,5.26729167 C58.1082968,5.71659722 57.0163278,6.02076389 55.8714654,6.156875 C57.0406866,5.45756944 57.9398733,4.35131944 58.3609321,3.03118056 C57.2682671,3.67840278 56.0572881,4.14923611 54.7662731,4.40270833 C53.7327651,3.30340278 52.2607992,2.61798611 50.6322412,2.61798611 C47.5045746,2.61798611 44.9691742,5.14854167 44.9691742,8.26868056 C44.9691742,8.71243056 45.0185877,9.14229167 45.1153269,9.55548611 C40.4092118,9.32076389 36.2369018,7.07145833 33.4432984,3.65131944 C32.9561229,4.48743056 32.677041,5.45756944 32.677041,6.49298611 C32.677041,8.45270833 33.6764467,10.1839583 35.1950422,11.1964583 C34.2673209,11.1672917 33.3945809,10.9117361 32.6311073,10.4895139 L32.6311073,10.5603472 C32.6311073,13.2978472 34.583289,15.581875 37.1729747,16.1013194 C36.6976306,16.2297917 36.1965358,16.300625 35.6801298,16.300625 C35.3168361,16.300625 34.960502,16.2638194 34.6153034,16.1978472 C35.3356272,18.4429861 37.4270019,20.075625 39.9046372,20.1228472 C37.9684626,21.638125 35.5263216,22.5415972 32.8712152,22.5415972 C32.4146622,22.5415972 31.9650688,22.5138194 31.5217391,22.4624306 C34.027213,24.0638194 37.0045511,24.9999306 40.2032061,24.9999306 C50.6190178,24.9999306 56.3154911,16.3915972 56.3154911,8.92354167 C56.3154911,8.67979167 56.3085314,8.43534722 56.2994839,8.19090278 C57.4032843,7.39576389 58.36302,6.400625 59.1237097,5.26729167" id="Fill-7"></path>
            </g>
        </g>
    </g>
</svg>